<svg width="32" height="32" viewBox="0 0 32 32" fill="none" xmlns="http://www.w3.org/2000/svg">
<path d="M9.87109 17.3047C9.63672 17.3047 9.44141 17.2266 9.28516 17.0703C9.12891 16.9141 9.05078 16.7188 9.05078 16.4844C9.05078 16.2578 9.12891 16.0664 9.28516 15.9102C9.44141 15.7539 9.63672 15.6758 9.87109 15.6758H15.1797V8.58594C15.1797 8.35938 15.2578 8.16797 15.4141 8.01172C15.5703 7.85547 15.7617 7.77734 15.9883 7.77734C16.2227 7.77734 16.418 7.85547 16.5742 8.01172C16.7305 8.16797 16.8086 8.35938 16.8086 8.58594V16.4844C16.8086 16.7188 16.7305 16.9141 16.5742 17.0703C16.418 17.2266 16.2227 17.3047 15.9883 17.3047H9.87109ZM16 27.9922C14.3672 27.9922 12.8281 27.6797 11.3828 27.0547C9.94531 26.4297 8.67578 25.5664 7.57422 24.4648C6.47266 23.3633 5.60938 22.0938 4.98438 20.6562C4.35938 19.2109 4.04688 17.6719 4.04688 16.0391C4.04688 14.4062 4.35938 12.8711 4.98438 11.4336C5.60938 9.98828 6.46875 8.71484 7.5625 7.61328C8.66406 6.51172 9.93359 5.64844 11.3711 5.02344C12.8164 4.39844 14.3555 4.08594 15.9883 4.08594C17.6211 4.08594 19.1602 4.39844 20.6055 5.02344C22.0508 5.64844 23.3242 6.51172 24.4258 7.61328C25.5273 8.71484 26.3906 9.98828 27.0156 11.4336C27.6406 12.8711 27.9531 14.4062 27.9531 16.0391C27.9531 17.6719 27.6406 19.2109 27.0156 20.6562C26.3906 22.0938 25.5273 23.3633 24.4258 24.4648C23.3242 25.5664 22.0508 26.4297 20.6055 27.0547C19.168 27.6797 17.6328 27.9922 16 27.9922ZM16 26C17.3828 26 18.6758 25.7422 19.8789 25.2266C21.082 24.7109 22.1406 24 23.0547 23.0938C23.9688 22.1797 24.6797 21.1211 25.1875 19.918C25.7031 18.7148 25.9609 17.4219 25.9609 16.0391C25.9609 14.6562 25.7031 13.3633 25.1875 12.1602C24.6719 10.957 23.957 9.89844 23.043 8.98438C22.1367 8.07031 21.0781 7.35937 19.8672 6.85156C18.6641 6.33594 17.3711 6.07812 15.9883 6.07812C14.6055 6.07812 13.3125 6.33594 12.1094 6.85156C10.9062 7.35937 9.85156 8.07031 8.94531 8.98438C8.03906 9.89844 7.32812 10.957 6.8125 12.1602C6.30469 13.3633 6.05078 14.6562 6.05078 16.0391C6.05078 17.4219 6.30469 18.7148 6.8125 19.918C7.32812 21.1211 8.03906 22.1797 8.94531 23.0938C9.85938 24 10.918 24.7109 12.1211 25.2266C13.3242 25.7422 14.6172 26 16 26Z" fill="#CD2C23"/>
</svg>
