<svg width="32" height="32" viewBox="0 0 32 32" fill="none" xmlns="http://www.w3.org/2000/svg">
<path d="M11.5586 10.2617C11.3477 10.2617 11.1719 10.1914 11.0312 10.0508C10.8984 9.91016 10.832 9.73828 10.832 9.53516C10.832 9.33203 10.8984 9.16406 11.0312 9.03125C11.1719 8.89062 11.3477 8.82031 11.5586 8.82031H20.4531C20.6562 8.82031 20.8242 8.89062 20.957 9.03125C21.0977 9.16406 21.168 9.33203 21.168 9.53516C21.168 9.73828 21.0977 9.91016 20.957 10.0508C20.8242 10.1914 20.6562 10.2617 20.4531 10.2617H11.5586ZM11.5586 14.3516C11.3477 14.3516 11.1719 14.2812 11.0312 14.1406C10.8984 14 10.832 13.8281 10.832 13.625C10.832 13.4219 10.8984 13.2539 11.0312 13.1211C11.1719 12.9805 11.3477 12.9102 11.5586 12.9102H20.4531C20.6562 12.9102 20.8242 12.9805 20.957 13.1211C21.0977 13.2539 21.168 13.4219 21.168 13.625C21.168 13.8281 21.0977 14 20.957 14.1406C20.8242 14.2812 20.6562 14.3516 20.4531 14.3516H11.5586ZM11.5586 18.4414C11.3477 18.4414 11.1719 18.375 11.0312 18.2422C10.8984 18.1016 10.832 17.9336 10.832 17.7383C10.832 17.5273 10.8984 17.3516 11.0312 17.2109C11.1719 17.0703 11.3477 17 11.5586 17H15.7656C15.9766 17 16.1484 17.0703 16.2812 17.2109C16.4219 17.3516 16.4922 17.5273 16.4922 17.7383C16.4922 17.9336 16.4219 18.1016 16.2812 18.2422C16.1484 18.375 15.9766 18.4414 15.7656 18.4414H11.5586ZM6.14453 24.9336V7.15625C6.14453 5.9375 6.44531 5.01953 7.04688 4.40234C7.65625 3.78516 8.56641 3.47656 9.77734 3.47656H22.2227C23.4336 3.47656 24.3398 3.78516 24.9414 4.40234C25.5508 5.01953 25.8555 5.9375 25.8555 7.15625V24.9336C25.8555 26.1602 25.5508 27.0781 24.9414 27.6875C24.3398 28.2969 23.4336 28.6016 22.2227 28.6016H9.77734C8.56641 28.6016 7.65625 28.2969 7.04688 27.6875C6.44531 27.0781 6.14453 26.1602 6.14453 24.9336ZM8.03125 24.8984C8.03125 25.4844 8.18359 25.9336 8.48828 26.2461C8.80078 26.5586 9.26172 26.7148 9.87109 26.7148H22.1289C22.7383 26.7148 23.1953 26.5586 23.5 26.2461C23.8125 25.9336 23.9688 25.4844 23.9688 24.8984V7.19141C23.9688 6.60547 23.8125 6.15625 23.5 5.84375C23.1953 5.52344 22.7383 5.36328 22.1289 5.36328H9.87109C9.26172 5.36328 8.80078 5.52344 8.48828 5.84375C8.18359 6.15625 8.03125 6.60547 8.03125 7.19141V24.8984Z" fill="#8C8E8E"/>
</svg>
